<svg fill="none" class="fill-blue-500" height="100%" viewBox="0 0 20 20" width="100%" xmlns="http://www.w3.org/2000/svg" preserveAspectRatio="xMidYMid meet"><g fill="#fff"><path d="m12.7803 3.21967c-.2929-.29289-.7677-.29289-1.0606 0s-.2929.76777 0 1.06066l1.7196 1.71967h-8.6893c-.41421 0-.75.33579-.75.75s.33579.75.75.75h8.6893l-1.7196 1.71967c-.2929.29289-.2929.76777 0 1.06063.2929.2929.7677.2929 1.0606 0l3-2.99997c.2929-.29289.2929-.76777 0-1.06066z"/><path d="m8.28033 10.7803c.29289-.2929.29289-.7677 0-1.06063-.29289-.29289-.76777-.29289-1.06066 0l-3 3.00003c-.14065.1406-.21967.3314-.21967.5303s.07902.3897.21967.5303l3 3c.29289.2929.76777.2929 1.06066 0s.29289-.7677 0-1.0606l-1.71967-1.7197h8.68934c.4142 0 .75-.3358.75-.75s-.3358-.75-.75-.75h-8.68934z"/></g></svg>